# xmcd
#
# Track frame offsets:
# 150
# 12504
# 20139
# 39644
# 53799
# 70536
# 88823
# 125467
# 142321
# 152608
# 177342
# 190817
# 207938
# 235370
# 261753
# 280225
# 295011
#
# Disc length: 4225 seconds
#
#
# Revision: 0
# Processed by: cddbd v1.5.1PL0 Copyright (c) Steve Scherf et al.
# Submitted via: FreeRIP 2.942 
#
DISCID=fe107f11
DTITLE=Esteban - D'un monde bien ailleurs
DYEAR=2004
DGENRE=New Age
TTITLE0=Take me away
TTITLE1=Sadlight
TTITLE2=Winter blue sky
TTITLE3=Before nightfall
TTITLE4=Blue sea II
TTITLE5=Soft piano
TTITLE6=Nice trip I
TTITLE7=Nice trip II
TTITLE8=A door to the world
TTITLE9=Envie de partir
TTITLE10=Spiano
TTITLE11=Need your eyes
TTITLE12=Oceanic silence
TTITLE13=Starting a new dream
TTITLE14=Between light n darkness
TTITLE15=Lonely melody
TTITLE16=Arm honey
EXTD=Mix et remix par Esteban
EXTT0=
EXTT1=
EXTT2=
EXTT3=
EXTT4=
EXTT5=
EXTT6=
EXTT7=
EXTT8=
EXTT9=
EXTT10=
EXTT11=
EXTT12=
EXTT13=
EXTT14=
EXTT15=
EXTT16=
PLAYORDER=
